<svg xmlns="http://www.w3.org/2000/svg" xmlns:xlink="http://www.w3.org/1999/xlink" width="672" zoomAndPan="magnify" viewBox="0 0 504 395.999985" height="528" preserveAspectRatio="xMidYMid meet" version="1.0"><defs><g/><clipPath id="2d5523d888"><path d="M 233 188 L 268 188 L 268 216 L 233 216 Z M 233 188 " clip-rule="nonzero"/></clipPath><clipPath id="8dbd048986"><path d="M 228.621094 190.042969 L 266.066406 182.300781 L 272.605469 213.933594 L 235.164062 221.675781 Z M 228.621094 190.042969 " clip-rule="nonzero"/></clipPath><clipPath id="a70d1a7659"><path d="M 228.621094 190.042969 L 266.066406 182.300781 L 272.605469 213.933594 L 235.164062 221.675781 Z M 228.621094 190.042969 " clip-rule="nonzero"/></clipPath></defs><g fill="#000000" fill-opacity="1"><g transform="translate(34.625305, 213.434886)"><g><path d="M 21.53125 -11.9375 C 21.800781 -12 22.054688 -11.957031 22.296875 -11.8125 C 22.546875 -11.675781 22.703125 -11.46875 22.765625 -11.1875 C 22.835938 -10.90625 22.789062 -10.65625 22.625 -10.4375 C 21.21875 -8.15625 19.546875 -6.054688 17.609375 -4.140625 C 15.671875 -2.222656 13.679688 -0.625 11.640625 0.65625 C 9.609375 1.9375 7.773438 2.972656 6.140625 3.765625 C 4.503906 4.554688 2.859375 5.234375 1.203125 5.796875 C 0.710938 5.972656 0.328125 5.832031 0.046875 5.375 C -0.515625 6.78125 -1.007812 8.171875 -1.4375 9.546875 C -1.570312 10.003906 -1.90625 10.234375 -2.4375 10.234375 C -2.46875 10.234375 -2.519531 10.234375 -2.59375 10.234375 C -2.832031 10.191406 -3.03125 10.070312 -3.1875 9.875 C -3.351562 9.6875 -3.4375 9.472656 -3.4375 9.234375 C -3.394531 8.421875 -2.539062 4.238281 -0.875 -3.3125 C 0.789062 -10.875 2.46875 -18.257812 4.15625 -25.46875 C 4.15625 -25.570312 4.175781 -25.675781 4.21875 -25.78125 C 4.8125 -28.3125 5.300781 -30.351562 5.6875 -31.90625 C 6.882812 -36.757812 8.265625 -40.898438 9.828125 -44.328125 C 11.390625 -47.753906 12.734375 -49.570312 13.859375 -49.78125 C 14.460938 -49.882812 14.921875 -49.707031 15.234375 -49.25 C 16.003906 -48.226562 15.5625 -45.519531 13.90625 -41.125 C 12.257812 -36.738281 9.679688 -31.378906 6.171875 -25.046875 C 4.265625 -17.066406 2.46875 -9.175781 0.78125 -1.375 C 1.769531 -3.414062 2.722656 -5.066406 3.640625 -6.328125 C 6.378906 -10.160156 8.554688 -11.832031 10.171875 -11.34375 C 11.222656 -11.019531 11.769531 -10.085938 11.8125 -8.546875 C 11.8125 -7.804688 11.695312 -6.96875 11.46875 -6.03125 C 11.238281 -5.101562 10.859375 -4.078125 10.328125 -2.953125 C 9.804688 -1.828125 9.175781 -0.753906 8.4375 0.265625 C 13.914062 -2.972656 18.082031 -6.894531 20.9375 -11.5 C 21.070312 -11.738281 21.269531 -11.882812 21.53125 -11.9375 Z M 13.5 -46.875 C 11.59375 -44.0625 9.796875 -39.476562 8.109375 -33.125 C 11.171875 -39.3125 12.96875 -43.894531 13.5 -46.875 Z M 0.625 3.84375 C 1.894531 3.394531 3.082031 2.71875 4.1875 1.8125 C 5.289062 0.914062 6.203125 -0.0546875 6.921875 -1.109375 C 7.648438 -2.160156 8.234375 -3.1875 8.671875 -4.1875 C 9.109375 -5.195312 9.414062 -6.140625 9.59375 -7.015625 C 9.84375 -8.242188 9.84375 -9.035156 9.59375 -9.390625 C 9.445312 -9.390625 9.257812 -9.328125 9.03125 -9.203125 C 8.8125 -9.078125 8.347656 -8.671875 7.640625 -7.984375 C 6.941406 -7.304688 6.171875 -6.367188 5.328125 -5.171875 C 3.804688 -3.054688 2.238281 -0.0507812 0.625 3.84375 Z M 0.625 3.84375 "/></g></g></g><g fill="#000000" fill-opacity="1"><g transform="translate(57.091173, 213.434886)"><g><path d="M 22.421875 -11.984375 C 22.691406 -12.078125 22.945312 -12.0625 23.1875 -11.9375 C 23.4375 -11.820312 23.613281 -11.628906 23.71875 -11.359375 C 23.832031 -11.097656 23.816406 -10.84375 23.671875 -10.59375 C 22.722656 -8.5625 21.648438 -6.472656 20.453125 -4.328125 C 19.253906 -2.179688 17.941406 -0.0078125 16.515625 2.1875 C 15.097656 4.382812 13.6875 6.175781 12.28125 7.5625 C 10.875 8.957031 9.679688 9.65625 8.703125 9.65625 C 8.453125 9.65625 8.222656 9.601562 8.015625 9.5 C 6.566406 8.9375 6.109375 6.753906 6.640625 2.953125 C 7.128906 -0.597656 8.429688 -5.625 10.546875 -12.125 C 10.503906 -12.125 10.472656 -12.113281 10.453125 -12.09375 C 10.441406 -12.082031 10.421875 -12.078125 10.390625 -12.078125 C 9.609375 -11.546875 8.960938 -11.140625 8.453125 -10.859375 C 7.941406 -10.578125 7.253906 -10.257812 6.390625 -9.90625 C 5.535156 -9.5625 4.722656 -9.40625 3.953125 -9.4375 C 3.179688 -9.476562 2.457031 -9.722656 1.78125 -10.171875 C 0.445312 -11.128906 -0.234375 -12.453125 -0.265625 -14.140625 C -0.304688 -15.828125 0.320312 -17.671875 1.625 -19.671875 C 2.4375 -20.929688 3.410156 -22.035156 4.546875 -22.984375 C 5.691406 -23.941406 6.671875 -24.15625 7.484375 -23.625 C 7.972656 -23.34375 8.257812 -22.882812 8.34375 -22.25 C 8.4375 -21.625 8.128906 -20.40625 7.421875 -18.59375 C 6.722656 -16.78125 5.546875 -14.414062 3.890625 -11.5 C 4.984375 -11.351562 6.78125 -12.109375 9.28125 -13.765625 C 9.738281 -14.078125 10.078125 -14.296875 10.296875 -14.421875 C 10.523438 -14.546875 10.789062 -14.675781 11.09375 -14.8125 C 11.394531 -14.957031 11.648438 -15.007812 11.859375 -14.96875 C 12.066406 -14.9375 12.28125 -14.851562 12.5 -14.71875 C 13.019531 -14.289062 13.101562 -13.550781 12.75 -12.5 C 9.238281 -1.601562 7.851562 5.003906 8.59375 7.328125 C 8.664062 7.472656 8.71875 7.578125 8.75 7.640625 C 9.03125 7.679688 9.457031 7.453125 10.03125 6.953125 C 10.613281 6.460938 11.335938 5.691406 12.203125 4.640625 C 13.066406 3.585938 14 2.320312 15 0.84375 C 16 -0.632812 17.101562 -2.445312 18.3125 -4.59375 C 19.53125 -6.738281 20.703125 -9.019531 21.828125 -11.4375 C 21.960938 -11.71875 22.160156 -11.898438 22.421875 -11.984375 Z M 1.953125 -15.5625 C 1.628906 -14.332031 1.695312 -13.347656 2.15625 -12.609375 C 4.71875 -17.066406 6.085938 -20.085938 6.265625 -21.671875 C 5.847656 -21.429688 5.363281 -21.03125 4.8125 -20.46875 C 4.269531 -19.90625 3.707031 -19.171875 3.125 -18.265625 C 2.550781 -17.367188 2.160156 -16.46875 1.953125 -15.5625 Z M 1.953125 -15.5625 "/></g></g></g><g fill="#000000" fill-opacity="1"><g transform="translate(80.769986, 213.434886)"><g><path d="M 14.734375 -12.125 C 14.992188 -12.195312 15.25 -12.160156 15.5 -12.015625 C 15.75 -11.878906 15.898438 -11.671875 15.953125 -11.390625 C 16.003906 -11.109375 15.957031 -10.84375 15.8125 -10.59375 C 14.832031 -9.050781 13.644531 -7.441406 12.25 -5.765625 C 10.863281 -4.097656 9.300781 -2.597656 7.5625 -1.265625 C 5.820312 0.0664062 4.351562 0.734375 3.15625 0.734375 C 2.738281 0.734375 2.367188 0.664062 2.046875 0.53125 C -0.304688 -0.488281 -0.550781 -4.617188 1.3125 -11.859375 C 1.382812 -12.140625 1.539062 -12.347656 1.78125 -12.484375 C 2.03125 -12.628906 2.285156 -12.664062 2.546875 -12.59375 C 2.816406 -12.53125 3.019531 -12.375 3.15625 -12.125 C 3.300781 -11.882812 3.335938 -11.640625 3.265625 -11.390625 C 2.835938 -9.703125 2.523438 -8.21875 2.328125 -6.9375 C 2.140625 -5.65625 2.054688 -4.675781 2.078125 -4 C 2.097656 -3.332031 2.164062 -2.78125 2.28125 -2.34375 C 2.40625 -1.90625 2.507812 -1.640625 2.59375 -1.546875 C 2.6875 -1.460938 2.769531 -1.40625 2.84375 -1.375 C 3.757812 -0.988281 5.421875 -1.898438 7.828125 -4.109375 C 10.234375 -6.328125 12.316406 -8.859375 14.078125 -11.703125 C 14.253906 -11.921875 14.472656 -12.0625 14.734375 -12.125 Z M 3.046875 -16.25 C 2.035156 -16.3125 1.722656 -16.734375 2.109375 -17.515625 C 2.453125 -18.140625 2.90625 -18.5625 3.46875 -18.78125 C 4.351562 -19.0625 4.882812 -18.832031 5.0625 -18.09375 C 5.238281 -17.382812 4.972656 -16.851562 4.265625 -16.5 C 3.910156 -16.332031 3.503906 -16.25 3.046875 -16.25 Z M 3.046875 -16.25 "/></g></g></g><g fill="#000000" fill-opacity="1"><g transform="translate(96.749227, 213.434886)"><g><path d="M 44.5625 -31.109375 C 44.726562 -30.898438 44.796875 -30.65625 44.765625 -30.375 C 44.734375 -30.09375 44.59375 -29.863281 44.34375 -29.6875 C 43.925781 -29.40625 43.519531 -29.425781 43.125 -29.75 C 41.4375 -30.34375 29.59375 -30.394531 7.59375 -29.90625 C 5.300781 -20.300781 2.976562 -9.894531 0.625 1.3125 C -2.1875 14.851562 -3.890625 24.15625 -4.484375 29.21875 C -4.421875 29.21875 -4.351562 29.234375 -4.28125 29.265625 C -4 29.335938 -3.804688 29.503906 -3.703125 29.765625 C -3.597656 30.035156 -3.597656 30.289062 -3.703125 30.53125 C -3.878906 31.09375 -4.023438 31.503906 -4.140625 31.765625 C -4.265625 32.035156 -4.445312 32.300781 -4.6875 32.5625 C -4.9375 32.820312 -5.203125 32.953125 -5.484375 32.953125 C -5.597656 32.953125 -5.722656 32.9375 -5.859375 32.90625 C -6.316406 32.769531 -6.585938 32.398438 -6.671875 31.796875 C -6.765625 31.203125 -6.722656 30.394531 -6.546875 29.375 C -6.398438 27.894531 -6.082031 25.769531 -5.59375 23 C -4.71875 17.71875 -3.398438 10.859375 -1.640625 2.421875 C 0.710938 -8.960938 3.085938 -19.71875 5.484375 -29.84375 C 3.085938 -29.8125 0.113281 -29.742188 -3.4375 -29.640625 C -9.0625 -29.492188 -12.363281 -29.421875 -13.34375 -29.421875 C -13.625 -29.421875 -13.859375 -29.515625 -14.046875 -29.703125 C -14.242188 -29.898438 -14.34375 -30.140625 -14.34375 -30.421875 C -14.34375 -30.597656 -14.300781 -30.765625 -14.21875 -30.921875 C -14.132812 -31.085938 -14.007812 -31.210938 -13.84375 -31.296875 C -13.6875 -31.390625 -13.519531 -31.4375 -13.34375 -31.4375 C -12.363281 -31.4375 -9.078125 -31.519531 -3.484375 -31.6875 C -0.00390625 -31.757812 3.15625 -31.832031 6 -31.90625 C 7.125 -36.539062 8.128906 -40.476562 9.015625 -43.71875 C 9.085938 -44 9.242188 -44.207031 9.484375 -44.34375 C 9.734375 -44.488281 9.988281 -44.523438 10.25 -44.453125 C 10.507812 -44.378906 10.707031 -44.21875 10.84375 -43.96875 C 10.988281 -43.726562 11.03125 -43.46875 10.96875 -43.1875 C 10.125 -40.0625 9.15625 -36.316406 8.0625 -31.953125 C 18.613281 -32.234375 26.578125 -32.335938 31.953125 -32.265625 C 37.328125 -32.203125 40.707031 -32.085938 42.09375 -31.921875 C 43.488281 -31.765625 44.3125 -31.492188 44.5625 -31.109375 Z M 44.5625 -31.109375 "/></g></g></g><g fill="#000000" fill-opacity="1"><g transform="translate(106.400055, 213.434886)"><g><path d="M 44.5625 -31.109375 C 44.726562 -30.898438 44.796875 -30.65625 44.765625 -30.375 C 44.734375 -30.09375 44.59375 -29.863281 44.34375 -29.6875 C 43.925781 -29.40625 43.519531 -29.425781 43.125 -29.75 C 41.4375 -30.34375 29.59375 -30.394531 7.59375 -29.90625 C 5.300781 -20.300781 2.976562 -9.894531 0.625 1.3125 C -2.1875 14.851562 -3.890625 24.15625 -4.484375 29.21875 C -4.421875 29.21875 -4.351562 29.234375 -4.28125 29.265625 C -4 29.335938 -3.804688 29.503906 -3.703125 29.765625 C -3.597656 30.035156 -3.597656 30.289062 -3.703125 30.53125 C -3.878906 31.09375 -4.023438 31.503906 -4.140625 31.765625 C -4.265625 32.035156 -4.445312 32.300781 -4.6875 32.5625 C -4.9375 32.820312 -5.203125 32.953125 -5.484375 32.953125 C -5.597656 32.953125 -5.722656 32.9375 -5.859375 32.90625 C -6.316406 32.769531 -6.585938 32.398438 -6.671875 31.796875 C -6.765625 31.203125 -6.722656 30.394531 -6.546875 29.375 C -6.398438 27.894531 -6.082031 25.769531 -5.59375 23 C -4.71875 17.71875 -3.398438 10.859375 -1.640625 2.421875 C 0.710938 -8.960938 3.085938 -19.71875 5.484375 -29.84375 C 3.085938 -29.8125 0.113281 -29.742188 -3.4375 -29.640625 C -9.0625 -29.492188 -12.363281 -29.421875 -13.34375 -29.421875 C -13.625 -29.421875 -13.859375 -29.515625 -14.046875 -29.703125 C -14.242188 -29.898438 -14.34375 -30.140625 -14.34375 -30.421875 C -14.34375 -30.597656 -14.300781 -30.765625 -14.21875 -30.921875 C -14.132812 -31.085938 -14.007812 -31.210938 -13.84375 -31.296875 C -13.6875 -31.390625 -13.519531 -31.4375 -13.34375 -31.4375 C -12.363281 -31.4375 -9.078125 -31.519531 -3.484375 -31.6875 C -0.00390625 -31.757812 3.15625 -31.832031 6 -31.90625 C 7.125 -36.539062 8.128906 -40.476562 9.015625 -43.71875 C 9.085938 -44 9.242188 -44.207031 9.484375 -44.34375 C 9.734375 -44.488281 9.988281 -44.523438 10.25 -44.453125 C 10.507812 -44.378906 10.707031 -44.21875 10.84375 -43.96875 C 10.988281 -43.726562 11.03125 -43.46875 10.96875 -43.1875 C 10.125 -40.0625 9.15625 -36.316406 8.0625 -31.953125 C 18.613281 -32.234375 26.578125 -32.335938 31.953125 -32.265625 C 37.328125 -32.203125 40.707031 -32.085938 42.09375 -31.921875 C 43.488281 -31.765625 44.3125 -31.492188 44.5625 -31.109375 Z M 44.5625 -31.109375 "/></g></g></g><g fill="#000000" fill-opacity="1"><g transform="translate(116.050883, 213.434886)"><g><path d="M 21.375 -11.78125 C 21.644531 -11.875 21.898438 -11.859375 22.140625 -11.734375 C 22.390625 -11.609375 22.554688 -11.414062 22.640625 -11.15625 C 22.734375 -10.894531 22.726562 -10.640625 22.625 -10.390625 C 18.851562 -2.617188 15.492188 1.265625 12.546875 1.265625 C 12.367188 1.265625 12.175781 1.25 11.96875 1.21875 C 9.613281 0.757812 8.15625 -2.40625 7.59375 -8.28125 C 5.863281 -5.957031 4.332031 -4.054688 3 -2.578125 C 1.800781 -1.316406 0.78125 -0.878906 -0.0625 -1.265625 C -0.90625 -1.578125 -1.304688 -2.492188 -1.265625 -4.015625 C -1.265625 -5.273438 -0.984375 -6.785156 -0.421875 -8.546875 C 0.140625 -10.304688 0.960938 -12.007812 2.046875 -13.65625 C 3.140625 -15.3125 4.316406 -16.347656 5.578125 -16.765625 C 7.441406 -17.429688 9.164062 -16.816406 10.75 -14.921875 C 10.925781 -14.710938 11.003906 -14.46875 10.984375 -14.1875 C 10.972656 -13.90625 10.859375 -13.675781 10.640625 -13.5 C 10.429688 -13.320312 10.1875 -13.242188 9.90625 -13.265625 C 9.625 -13.285156 9.394531 -13.398438 9.21875 -13.609375 C 7.988281 -15.085938 6.742188 -15.367188 5.484375 -14.453125 C 4.035156 -13.429688 2.828125 -11.59375 1.859375 -8.9375 C 0.898438 -6.28125 0.523438 -4.390625 0.734375 -3.265625 C 0.941406 -3.441406 1.1875 -3.671875 1.46875 -3.953125 C 2.875 -5.460938 4.597656 -7.625 6.640625 -10.4375 C 7.097656 -11.070312 7.414062 -11.515625 7.59375 -11.765625 C 7.875 -12.109375 8.238281 -12.21875 8.6875 -12.09375 C 9.144531 -11.976562 9.394531 -11.675781 9.4375 -11.1875 C 9.507812 -9.457031 9.648438 -7.925781 9.859375 -6.59375 C 10.066406 -5.257812 10.273438 -4.25 10.484375 -3.5625 C 10.703125 -2.875 10.953125 -2.300781 11.234375 -1.84375 C 11.515625 -1.382812 11.734375 -1.09375 11.890625 -0.96875 C 12.046875 -0.851562 12.210938 -0.796875 12.390625 -0.796875 C 12.878906 -0.691406 13.5 -0.925781 14.25 -1.5 C 15.007812 -2.082031 15.976562 -3.207031 17.15625 -4.875 C 18.332031 -6.550781 19.535156 -8.671875 20.765625 -11.234375 C 20.910156 -11.515625 21.113281 -11.695312 21.375 -11.78125 Z M 21.375 -11.78125 "/></g></g></g><g fill="#000000" fill-opacity="1"><g transform="translate(138.305809, 213.434886)"><g><path d="M 20.515625 -11.859375 C 20.796875 -11.929688 21.054688 -11.894531 21.296875 -11.75 C 21.546875 -11.613281 21.703125 -11.414062 21.765625 -11.15625 C 21.835938 -10.894531 21.804688 -10.640625 21.671875 -10.390625 C 20.472656 -8.273438 19.429688 -6.601562 18.546875 -5.375 C 17.671875 -4.144531 16.773438 -3.175781 15.859375 -2.46875 C 14.953125 -1.769531 14.054688 -1.472656 13.171875 -1.578125 C 11.421875 -1.796875 10.035156 -3.695312 9.015625 -7.28125 C 8.273438 -9.707031 7.640625 -10.921875 7.109375 -10.921875 C 7.003906 -10.953125 6.851562 -10.90625 6.65625 -10.78125 C 6.46875 -10.65625 6.160156 -10.335938 5.734375 -9.828125 C 5.316406 -9.328125 4.851562 -8.632812 4.34375 -7.75 C 3.832031 -6.875 3.164062 -5.570312 2.34375 -3.84375 C 1.519531 -2.125 0.628906 -0.0859375 -0.328125 2.265625 C -0.503906 2.691406 -0.816406 2.90625 -1.265625 2.90625 C -1.335938 2.90625 -1.410156 2.882812 -1.484375 2.84375 C -2.078125 2.707031 -2.34375 2.335938 -2.28125 1.734375 C -1.925781 -1.140625 -0.601562 -6.5 1.6875 -14.34375 C 1.925781 -15.15625 2.097656 -15.769531 2.203125 -16.1875 C 2.316406 -16.46875 2.492188 -16.671875 2.734375 -16.796875 C 2.984375 -16.921875 3.238281 -16.945312 3.5 -16.875 C 3.757812 -16.800781 3.957031 -16.640625 4.09375 -16.390625 C 4.238281 -16.148438 4.257812 -15.890625 4.15625 -15.609375 C 4.09375 -15.359375 3.921875 -14.742188 3.640625 -13.765625 C 2.859375 -11.054688 2.257812 -8.945312 1.84375 -7.4375 C 2.96875 -9.539062 3.953125 -11 4.796875 -11.8125 C 5.640625 -12.625 6.445312 -13.007812 7.21875 -12.96875 C 8.132812 -12.9375 8.863281 -12.460938 9.40625 -11.546875 C 9.945312 -10.628906 10.46875 -9.382812 10.96875 -7.8125 C 11.738281 -5.101562 12.5625 -3.695312 13.4375 -3.59375 C 13.863281 -3.519531 14.382812 -3.753906 15 -4.296875 C 15.613281 -4.835938 16.269531 -5.628906 16.96875 -6.671875 C 17.675781 -7.710938 18.210938 -8.53125 18.578125 -9.125 C 18.953125 -9.71875 19.382812 -10.472656 19.875 -11.390625 C 20.019531 -11.640625 20.234375 -11.796875 20.515625 -11.859375 Z M 20.515625 -11.859375 "/></g></g></g><g fill="#000000" fill-opacity="1"><g transform="translate(159.769675, 213.434886)"><g><path d="M 25.203125 -12.046875 C 25.484375 -11.992188 25.703125 -11.851562 25.859375 -11.625 C 26.015625 -11.394531 26.054688 -11.140625 25.984375 -10.859375 C 25.921875 -10.578125 25.785156 -10.367188 25.578125 -10.234375 C 19.347656 -6.191406 14.25 -2.164062 10.28125 1.84375 C 8.207031 14.257812 5.9375 24.332031 3.46875 32.0625 C 0.550781 41.164062 -2.273438 46.101562 -5.015625 46.875 C -5.265625 46.945312 -5.53125 46.984375 -5.8125 46.984375 C -6.613281 46.984375 -7.316406 46.632812 -7.921875 45.9375 C -8.898438 44.664062 -9.429688 42.570312 -9.515625 39.65625 C -9.609375 36.738281 -9.15625 33.289062 -8.15625 29.3125 C -7.15625 25.34375 -5.703125 21.515625 -3.796875 17.828125 C -0.460938 11.460938 3.613281 5.800781 8.4375 0.84375 C 8.957031 -2.457031 9.484375 -5.921875 10.015625 -9.546875 C 8.921875 -7.890625 7.898438 -6.5 6.953125 -5.375 C 5.410156 -3.476562 3.9375 -2.953125 2.53125 -3.796875 C 1.363281 -4.503906 0.742188 -5.972656 0.671875 -8.203125 C 0.609375 -10.429688 1.117188 -12.863281 2.203125 -15.5 C 2.316406 -15.75 2.503906 -15.925781 2.765625 -16.03125 C 3.023438 -16.132812 3.273438 -16.132812 3.515625 -16.03125 C 3.765625 -15.925781 3.953125 -15.75 4.078125 -15.5 C 4.203125 -15.257812 4.210938 -15 4.109375 -14.71875 C 3.160156 -12.144531 2.691406 -10.050781 2.703125 -8.4375 C 2.722656 -6.820312 3.015625 -5.851562 3.578125 -5.53125 C 3.960938 -5.289062 4.5625 -5.660156 5.375 -6.640625 C 7.132812 -8.753906 8.945312 -11.425781 10.8125 -14.65625 C 11.09375 -15.15625 11.492188 -15.304688 12.015625 -15.109375 C 12.546875 -14.910156 12.773438 -14.550781 12.703125 -14.03125 C 12.109375 -9.632812 11.492188 -5.46875 10.859375 -1.53125 C 14.484375 -4.90625 19.019531 -8.367188 24.46875 -11.921875 C 24.675781 -12.054688 24.921875 -12.097656 25.203125 -12.046875 Z M 1.53125 31.484375 C 3.78125 24.453125 5.867188 15.46875 7.796875 4.53125 C 4.003906 8.75 0.734375 13.5 -2.015625 18.78125 C -3.523438 21.65625 -4.726562 24.59375 -5.625 27.59375 C -6.519531 30.601562 -7.070312 33.234375 -7.28125 35.484375 C -7.488281 37.734375 -7.503906 39.664062 -7.328125 41.28125 C -7.160156 42.90625 -6.828125 44.015625 -6.328125 44.609375 C -6.085938 44.890625 -5.84375 45 -5.59375 44.9375 C -5.414062 44.894531 -5.222656 44.800781 -5.015625 44.65625 C -4.804688 44.519531 -4.453125 44.160156 -3.953125 43.578125 C -3.460938 43.003906 -2.972656 42.269531 -2.484375 41.375 C -1.992188 40.476562 -1.378906 39.164062 -0.640625 37.4375 C 0.0976562 35.71875 0.820312 33.734375 1.53125 31.484375 Z M 1.53125 31.484375 "/></g></g></g><g fill="#000000" fill-opacity="1"><g transform="translate(33.69304, 212.502615)"><g><path d="M 21.53125 -11.9375 C 21.800781 -12 22.054688 -11.957031 22.296875 -11.8125 C 22.546875 -11.675781 22.703125 -11.46875 22.765625 -11.1875 C 22.835938 -10.90625 22.789062 -10.65625 22.625 -10.4375 C 21.21875 -8.15625 19.546875 -6.054688 17.609375 -4.140625 C 15.671875 -2.222656 13.679688 -0.625 11.640625 0.65625 C 9.609375 1.9375 7.773438 2.972656 6.140625 3.765625 C 4.503906 4.554688 2.859375 5.234375 1.203125 5.796875 C 0.710938 5.972656 0.328125 5.832031 0.046875 5.375 C -0.515625 6.78125 -1.007812 8.171875 -1.4375 9.546875 C -1.570312 10.003906 -1.90625 10.234375 -2.4375 10.234375 C -2.46875 10.234375 -2.519531 10.234375 -2.59375 10.234375 C -2.832031 10.191406 -3.03125 10.070312 -3.1875 9.875 C -3.351562 9.6875 -3.4375 9.472656 -3.4375 9.234375 C -3.394531 8.421875 -2.539062 4.238281 -0.875 -3.3125 C 0.789062 -10.875 2.46875 -18.257812 4.15625 -25.46875 C 4.15625 -25.570312 4.175781 -25.675781 4.21875 -25.78125 C 4.8125 -28.3125 5.300781 -30.351562 5.6875 -31.90625 C 6.882812 -36.757812 8.265625 -40.898438 9.828125 -44.328125 C 11.390625 -47.753906 12.734375 -49.570312 13.859375 -49.78125 C 14.460938 -49.882812 14.921875 -49.707031 15.234375 -49.25 C 16.003906 -48.226562 15.5625 -45.519531 13.90625 -41.125 C 12.257812 -36.738281 9.679688 -31.378906 6.171875 -25.046875 C 4.265625 -17.066406 2.46875 -9.175781 0.78125 -1.375 C 1.769531 -3.414062 2.722656 -5.066406 3.640625 -6.328125 C 6.378906 -10.160156 8.554688 -11.832031 10.171875 -11.34375 C 11.222656 -11.019531 11.769531 -10.085938 11.8125 -8.546875 C 11.8125 -7.804688 11.695312 -6.96875 11.46875 -6.03125 C 11.238281 -5.101562 10.859375 -4.078125 10.328125 -2.953125 C 9.804688 -1.828125 9.175781 -0.753906 8.4375 0.265625 C 13.914062 -2.972656 18.082031 -6.894531 20.9375 -11.5 C 21.070312 -11.738281 21.269531 -11.882812 21.53125 -11.9375 Z M 13.5 -46.875 C 11.59375 -44.0625 9.796875 -39.476562 8.109375 -33.125 C 11.171875 -39.3125 12.96875 -43.894531 13.5 -46.875 Z M 0.625 3.84375 C 1.894531 3.394531 3.082031 2.71875 4.1875 1.8125 C 5.289062 0.914062 6.203125 -0.0546875 6.921875 -1.109375 C 7.648438 -2.160156 8.234375 -3.1875 8.671875 -4.1875 C 9.109375 -5.195312 9.414062 -6.140625 9.59375 -7.015625 C 9.84375 -8.242188 9.84375 -9.035156 9.59375 -9.390625 C 9.445312 -9.390625 9.257812 -9.328125 9.03125 -9.203125 C 8.8125 -9.078125 8.347656 -8.671875 7.640625 -7.984375 C 6.941406 -7.304688 6.171875 -6.367188 5.328125 -5.171875 C 3.804688 -3.054688 2.238281 -0.0507812 0.625 3.84375 Z M 0.625 3.84375 "/></g></g></g><g fill="#000000" fill-opacity="1"><g transform="translate(56.158908, 212.502615)"><g><path d="M 22.421875 -11.984375 C 22.691406 -12.078125 22.945312 -12.0625 23.1875 -11.9375 C 23.4375 -11.820312 23.613281 -11.628906 23.71875 -11.359375 C 23.832031 -11.097656 23.816406 -10.84375 23.671875 -10.59375 C 22.722656 -8.5625 21.648438 -6.472656 20.453125 -4.328125 C 19.253906 -2.179688 17.941406 -0.0078125 16.515625 2.1875 C 15.097656 4.382812 13.6875 6.175781 12.28125 7.5625 C 10.875 8.957031 9.679688 9.65625 8.703125 9.65625 C 8.453125 9.65625 8.222656 9.601562 8.015625 9.5 C 6.566406 8.9375 6.109375 6.753906 6.640625 2.953125 C 7.128906 -0.597656 8.429688 -5.625 10.546875 -12.125 C 10.503906 -12.125 10.472656 -12.113281 10.453125 -12.09375 C 10.441406 -12.082031 10.421875 -12.078125 10.390625 -12.078125 C 9.609375 -11.546875 8.960938 -11.140625 8.453125 -10.859375 C 7.941406 -10.578125 7.253906 -10.257812 6.390625 -9.90625 C 5.535156 -9.5625 4.722656 -9.40625 3.953125 -9.4375 C 3.179688 -9.476562 2.457031 -9.722656 1.78125 -10.171875 C 0.445312 -11.128906 -0.234375 -12.453125 -0.265625 -14.140625 C -0.304688 -15.828125 0.320312 -17.671875 1.625 -19.671875 C 2.4375 -20.929688 3.410156 -22.035156 4.546875 -22.984375 C 5.691406 -23.941406 6.671875 -24.15625 7.484375 -23.625 C 7.972656 -23.34375 8.257812 -22.882812 8.34375 -22.25 C 8.4375 -21.625 8.128906 -20.40625 7.421875 -18.59375 C 6.722656 -16.78125 5.546875 -14.414062 3.890625 -11.5 C 4.984375 -11.351562 6.78125 -12.109375 9.28125 -13.765625 C 9.738281 -14.078125 10.078125 -14.296875 10.296875 -14.421875 C 10.523438 -14.546875 10.789062 -14.675781 11.09375 -14.8125 C 11.394531 -14.957031 11.648438 -15.007812 11.859375 -14.96875 C 12.066406 -14.9375 12.28125 -14.851562 12.5 -14.71875 C 13.019531 -14.289062 13.101562 -13.550781 12.75 -12.5 C 9.238281 -1.601562 7.851562 5.003906 8.59375 7.328125 C 8.664062 7.472656 8.71875 7.578125 8.75 7.640625 C 9.03125 7.679688 9.457031 7.453125 10.03125 6.953125 C 10.613281 6.460938 11.335938 5.691406 12.203125 4.640625 C 13.066406 3.585938 14 2.320312 15 0.84375 C 16 -0.632812 17.101562 -2.445312 18.3125 -4.59375 C 19.53125 -6.738281 20.703125 -9.019531 21.828125 -11.4375 C 21.960938 -11.71875 22.160156 -11.898438 22.421875 -11.984375 Z M 1.953125 -15.5625 C 1.628906 -14.332031 1.695312 -13.347656 2.15625 -12.609375 C 4.71875 -17.066406 6.085938 -20.085938 6.265625 -21.671875 C 5.847656 -21.429688 5.363281 -21.03125 4.8125 -20.46875 C 4.269531 -19.90625 3.707031 -19.171875 3.125 -18.265625 C 2.550781 -17.367188 2.160156 -16.46875 1.953125 -15.5625 Z M 1.953125 -15.5625 "/></g></g></g><g fill="#000000" fill-opacity="1"><g transform="translate(79.837721, 212.502615)"><g><path d="M 14.734375 -12.125 C 14.992188 -12.195312 15.25 -12.160156 15.5 -12.015625 C 15.75 -11.878906 15.898438 -11.671875 15.953125 -11.390625 C 16.003906 -11.109375 15.957031 -10.84375 15.8125 -10.59375 C 14.832031 -9.050781 13.644531 -7.441406 12.25 -5.765625 C 10.863281 -4.097656 9.300781 -2.597656 7.5625 -1.265625 C 5.820312 0.0664062 4.351562 0.734375 3.15625 0.734375 C 2.738281 0.734375 2.367188 0.664062 2.046875 0.53125 C -0.304688 -0.488281 -0.550781 -4.617188 1.3125 -11.859375 C 1.382812 -12.140625 1.539062 -12.347656 1.78125 -12.484375 C 2.03125 -12.628906 2.285156 -12.664062 2.546875 -12.59375 C 2.816406 -12.53125 3.019531 -12.375 3.15625 -12.125 C 3.300781 -11.882812 3.335938 -11.640625 3.265625 -11.390625 C 2.835938 -9.703125 2.523438 -8.21875 2.328125 -6.9375 C 2.140625 -5.65625 2.054688 -4.675781 2.078125 -4 C 2.097656 -3.332031 2.164062 -2.78125 2.28125 -2.34375 C 2.40625 -1.90625 2.507812 -1.640625 2.59375 -1.546875 C 2.6875 -1.460938 2.769531 -1.40625 2.84375 -1.375 C 3.757812 -0.988281 5.421875 -1.898438 7.828125 -4.109375 C 10.234375 -6.328125 12.316406 -8.859375 14.078125 -11.703125 C 14.253906 -11.921875 14.472656 -12.0625 14.734375 -12.125 Z M 3.046875 -16.25 C 2.035156 -16.3125 1.722656 -16.734375 2.109375 -17.515625 C 2.453125 -18.140625 2.90625 -18.5625 3.46875 -18.78125 C 4.351562 -19.0625 4.882812 -18.832031 5.0625 -18.09375 C 5.238281 -17.382812 4.972656 -16.851562 4.265625 -16.5 C 3.910156 -16.332031 3.503906 -16.25 3.046875 -16.25 Z M 3.046875 -16.25 "/></g></g></g><g fill="#000000" fill-opacity="1"><g transform="translate(95.816962, 212.502615)"><g><path d="M 44.5625 -31.109375 C 44.726562 -30.898438 44.796875 -30.65625 44.765625 -30.375 C 44.734375 -30.09375 44.59375 -29.863281 44.34375 -29.6875 C 43.925781 -29.40625 43.519531 -29.425781 43.125 -29.75 C 41.4375 -30.34375 29.59375 -30.394531 7.59375 -29.90625 C 5.300781 -20.300781 2.976562 -9.894531 0.625 1.3125 C -2.1875 14.851562 -3.890625 24.15625 -4.484375 29.21875 C -4.421875 29.21875 -4.351562 29.234375 -4.28125 29.265625 C -4 29.335938 -3.804688 29.503906 -3.703125 29.765625 C -3.597656 30.035156 -3.597656 30.289062 -3.703125 30.53125 C -3.878906 31.09375 -4.023438 31.503906 -4.140625 31.765625 C -4.265625 32.035156 -4.445312 32.300781 -4.6875 32.5625 C -4.9375 32.820312 -5.203125 32.953125 -5.484375 32.953125 C -5.597656 32.953125 -5.722656 32.9375 -5.859375 32.90625 C -6.316406 32.769531 -6.585938 32.398438 -6.671875 31.796875 C -6.765625 31.203125 -6.722656 30.394531 -6.546875 29.375 C -6.398438 27.894531 -6.082031 25.769531 -5.59375 23 C -4.71875 17.71875 -3.398438 10.859375 -1.640625 2.421875 C 0.710938 -8.960938 3.085938 -19.71875 5.484375 -29.84375 C 3.085938 -29.8125 0.113281 -29.742188 -3.4375 -29.640625 C -9.0625 -29.492188 -12.363281 -29.421875 -13.34375 -29.421875 C -13.625 -29.421875 -13.859375 -29.515625 -14.046875 -29.703125 C -14.242188 -29.898438 -14.34375 -30.140625 -14.34375 -30.421875 C -14.34375 -30.597656 -14.300781 -30.765625 -14.21875 -30.921875 C -14.132812 -31.085938 -14.007812 -31.210938 -13.84375 -31.296875 C -13.6875 -31.390625 -13.519531 -31.4375 -13.34375 -31.4375 C -12.363281 -31.4375 -9.078125 -31.519531 -3.484375 -31.6875 C -0.00390625 -31.757812 3.15625 -31.832031 6 -31.90625 C 7.125 -36.539062 8.128906 -40.476562 9.015625 -43.71875 C 9.085938 -44 9.242188 -44.207031 9.484375 -44.34375 C 9.734375 -44.488281 9.988281 -44.523438 10.25 -44.453125 C 10.507812 -44.378906 10.707031 -44.21875 10.84375 -43.96875 C 10.988281 -43.726562 11.03125 -43.46875 10.96875 -43.1875 C 10.125 -40.0625 9.15625 -36.316406 8.0625 -31.953125 C 18.613281 -32.234375 26.578125 -32.335938 31.953125 -32.265625 C 37.328125 -32.203125 40.707031 -32.085938 42.09375 -31.921875 C 43.488281 -31.765625 44.3125 -31.492188 44.5625 -31.109375 Z M 44.5625 -31.109375 "/></g></g></g><g fill="#000000" fill-opacity="1"><g transform="translate(105.46779, 212.502615)"><g><path d="M 44.5625 -31.109375 C 44.726562 -30.898438 44.796875 -30.65625 44.765625 -30.375 C 44.734375 -30.09375 44.59375 -29.863281 44.34375 -29.6875 C 43.925781 -29.40625 43.519531 -29.425781 43.125 -29.75 C 41.4375 -30.34375 29.59375 -30.394531 7.59375 -29.90625 C 5.300781 -20.300781 2.976562 -9.894531 0.625 1.3125 C -2.1875 14.851562 -3.890625 24.15625 -4.484375 29.21875 C -4.421875 29.21875 -4.351562 29.234375 -4.28125 29.265625 C -4 29.335938 -3.804688 29.503906 -3.703125 29.765625 C -3.597656 30.035156 -3.597656 30.289062 -3.703125 30.53125 C -3.878906 31.09375 -4.023438 31.503906 -4.140625 31.765625 C -4.265625 32.035156 -4.445312 32.300781 -4.6875 32.5625 C -4.9375 32.820312 -5.203125 32.953125 -5.484375 32.953125 C -5.597656 32.953125 -5.722656 32.9375 -5.859375 32.90625 C -6.316406 32.769531 -6.585938 32.398438 -6.671875 31.796875 C -6.765625 31.203125 -6.722656 30.394531 -6.546875 29.375 C -6.398438 27.894531 -6.082031 25.769531 -5.59375 23 C -4.71875 17.71875 -3.398438 10.859375 -1.640625 2.421875 C 0.710938 -8.960938 3.085938 -19.71875 5.484375 -29.84375 C 3.085938 -29.8125 0.113281 -29.742188 -3.4375 -29.640625 C -9.0625 -29.492188 -12.363281 -29.421875 -13.34375 -29.421875 C -13.625 -29.421875 -13.859375 -29.515625 -14.046875 -29.703125 C -14.242188 -29.898438 -14.34375 -30.140625 -14.34375 -30.421875 C -14.34375 -30.597656 -14.300781 -30.765625 -14.21875 -30.921875 C -14.132812 -31.085938 -14.007812 -31.210938 -13.84375 -31.296875 C -13.6875 -31.390625 -13.519531 -31.4375 -13.34375 -31.4375 C -12.363281 -31.4375 -9.078125 -31.519531 -3.484375 -31.6875 C -0.00390625 -31.757812 3.15625 -31.832031 6 -31.90625 C 7.125 -36.539062 8.128906 -40.476562 9.015625 -43.71875 C 9.085938 -44 9.242188 -44.207031 9.484375 -44.34375 C 9.734375 -44.488281 9.988281 -44.523438 10.25 -44.453125 C 10.507812 -44.378906 10.707031 -44.21875 10.84375 -43.96875 C 10.988281 -43.726562 11.03125 -43.46875 10.96875 -43.1875 C 10.125 -40.0625 9.15625 -36.316406 8.0625 -31.953125 C 18.613281 -32.234375 26.578125 -32.335938 31.953125 -32.265625 C 37.328125 -32.203125 40.707031 -32.085938 42.09375 -31.921875 C 43.488281 -31.765625 44.3125 -31.492188 44.5625 -31.109375 Z M 44.5625 -31.109375 "/></g></g></g><g fill="#000000" fill-opacity="1"><g transform="translate(115.118619, 212.502615)"><g><path d="M 21.375 -11.78125 C 21.644531 -11.875 21.898438 -11.859375 22.140625 -11.734375 C 22.390625 -11.609375 22.554688 -11.414062 22.640625 -11.15625 C 22.734375 -10.894531 22.726562 -10.640625 22.625 -10.390625 C 18.851562 -2.617188 15.492188 1.265625 12.546875 1.265625 C 12.367188 1.265625 12.175781 1.25 11.96875 1.21875 C 9.613281 0.757812 8.15625 -2.40625 7.59375 -8.28125 C 5.863281 -5.957031 4.332031 -4.054688 3 -2.578125 C 1.800781 -1.316406 0.78125 -0.878906 -0.0625 -1.265625 C -0.90625 -1.578125 -1.304688 -2.492188 -1.265625 -4.015625 C -1.265625 -5.273438 -0.984375 -6.785156 -0.421875 -8.546875 C 0.140625 -10.304688 0.960938 -12.007812 2.046875 -13.65625 C 3.140625 -15.3125 4.316406 -16.347656 5.578125 -16.765625 C 7.441406 -17.429688 9.164062 -16.816406 10.75 -14.921875 C 10.925781 -14.710938 11.003906 -14.46875 10.984375 -14.1875 C 10.972656 -13.90625 10.859375 -13.675781 10.640625 -13.5 C 10.429688 -13.320312 10.1875 -13.242188 9.90625 -13.265625 C 9.625 -13.285156 9.394531 -13.398438 9.21875 -13.609375 C 7.988281 -15.085938 6.742188 -15.367188 5.484375 -14.453125 C 4.035156 -13.429688 2.828125 -11.59375 1.859375 -8.9375 C 0.898438 -6.28125 0.523438 -4.390625 0.734375 -3.265625 C 0.941406 -3.441406 1.1875 -3.671875 1.46875 -3.953125 C 2.875 -5.460938 4.597656 -7.625 6.640625 -10.4375 C 7.097656 -11.070312 7.414062 -11.515625 7.59375 -11.765625 C 7.875 -12.109375 8.238281 -12.21875 8.6875 -12.09375 C 9.144531 -11.976562 9.394531 -11.675781 9.4375 -11.1875 C 9.507812 -9.457031 9.648438 -7.925781 9.859375 -6.59375 C 10.066406 -5.257812 10.273438 -4.25 10.484375 -3.5625 C 10.703125 -2.875 10.953125 -2.300781 11.234375 -1.84375 C 11.515625 -1.382812 11.734375 -1.09375 11.890625 -0.96875 C 12.046875 -0.851562 12.210938 -0.796875 12.390625 -0.796875 C 12.878906 -0.691406 13.5 -0.925781 14.25 -1.5 C 15.007812 -2.082031 15.976562 -3.207031 17.15625 -4.875 C 18.332031 -6.550781 19.535156 -8.671875 20.765625 -11.234375 C 20.910156 -11.515625 21.113281 -11.695312 21.375 -11.78125 Z M 21.375 -11.78125 "/></g></g></g><g fill="#000000" fill-opacity="1"><g transform="translate(137.373545, 212.502615)"><g><path d="M 20.515625 -11.859375 C 20.796875 -11.929688 21.054688 -11.894531 21.296875 -11.75 C 21.546875 -11.613281 21.703125 -11.414062 21.765625 -11.15625 C 21.835938 -10.894531 21.804688 -10.640625 21.671875 -10.390625 C 20.472656 -8.273438 19.429688 -6.601562 18.546875 -5.375 C 17.671875 -4.144531 16.773438 -3.175781 15.859375 -2.46875 C 14.953125 -1.769531 14.054688 -1.472656 13.171875 -1.578125 C 11.421875 -1.796875 10.035156 -3.695312 9.015625 -7.28125 C 8.273438 -9.707031 7.640625 -10.921875 7.109375 -10.921875 C 7.003906 -10.953125 6.851562 -10.90625 6.65625 -10.78125 C 6.46875 -10.65625 6.160156 -10.335938 5.734375 -9.828125 C 5.316406 -9.328125 4.851562 -8.632812 4.34375 -7.75 C 3.832031 -6.875 3.164062 -5.570312 2.34375 -3.84375 C 1.519531 -2.125 0.628906 -0.0859375 -0.328125 2.265625 C -0.503906 2.691406 -0.816406 2.90625 -1.265625 2.90625 C -1.335938 2.90625 -1.410156 2.882812 -1.484375 2.84375 C -2.078125 2.707031 -2.34375 2.335938 -2.28125 1.734375 C -1.925781 -1.140625 -0.601562 -6.5 1.6875 -14.34375 C 1.925781 -15.15625 2.097656 -15.769531 2.203125 -16.1875 C 2.316406 -16.46875 2.492188 -16.671875 2.734375 -16.796875 C 2.984375 -16.921875 3.238281 -16.945312 3.5 -16.875 C 3.757812 -16.800781 3.957031 -16.640625 4.09375 -16.390625 C 4.238281 -16.148438 4.257812 -15.890625 4.15625 -15.609375 C 4.09375 -15.359375 3.921875 -14.742188 3.640625 -13.765625 C 2.859375 -11.054688 2.257812 -8.945312 1.84375 -7.4375 C 2.96875 -9.539062 3.953125 -11 4.796875 -11.8125 C 5.640625 -12.625 6.445312 -13.007812 7.21875 -12.96875 C 8.132812 -12.9375 8.863281 -12.460938 9.40625 -11.546875 C 9.945312 -10.628906 10.46875 -9.382812 10.96875 -7.8125 C 11.738281 -5.101562 12.5625 -3.695312 13.4375 -3.59375 C 13.863281 -3.519531 14.382812 -3.753906 15 -4.296875 C 15.613281 -4.835938 16.269531 -5.628906 16.96875 -6.671875 C 17.675781 -7.710938 18.210938 -8.53125 18.578125 -9.125 C 18.953125 -9.71875 19.382812 -10.472656 19.875 -11.390625 C 20.019531 -11.640625 20.234375 -11.796875 20.515625 -11.859375 Z M 20.515625 -11.859375 "/></g></g></g><g fill="#000000" fill-opacity="1"><g transform="translate(158.83741, 212.502615)"><g><path d="M 25.203125 -12.046875 C 25.484375 -11.992188 25.703125 -11.851562 25.859375 -11.625 C 26.015625 -11.394531 26.054688 -11.140625 25.984375 -10.859375 C 25.921875 -10.578125 25.785156 -10.367188 25.578125 -10.234375 C 19.347656 -6.191406 14.25 -2.164062 10.28125 1.84375 C 8.207031 14.257812 5.9375 24.332031 3.46875 32.0625 C 0.550781 41.164062 -2.273438 46.101562 -5.015625 46.875 C -5.265625 46.945312 -5.53125 46.984375 -5.8125 46.984375 C -6.613281 46.984375 -7.316406 46.632812 -7.921875 45.9375 C -8.898438 44.664062 -9.429688 42.570312 -9.515625 39.65625 C -9.609375 36.738281 -9.15625 33.289062 -8.15625 29.3125 C -7.15625 25.34375 -5.703125 21.515625 -3.796875 17.828125 C -0.460938 11.460938 3.613281 5.800781 8.4375 0.84375 C 8.957031 -2.457031 9.484375 -5.921875 10.015625 -9.546875 C 8.921875 -7.890625 7.898438 -6.5 6.953125 -5.375 C 5.410156 -3.476562 3.9375 -2.953125 2.53125 -3.796875 C 1.363281 -4.503906 0.742188 -5.972656 0.671875 -8.203125 C 0.609375 -10.429688 1.117188 -12.863281 2.203125 -15.5 C 2.316406 -15.75 2.503906 -15.925781 2.765625 -16.03125 C 3.023438 -16.132812 3.273438 -16.132812 3.515625 -16.03125 C 3.765625 -15.925781 3.953125 -15.75 4.078125 -15.5 C 4.203125 -15.257812 4.210938 -15 4.109375 -14.71875 C 3.160156 -12.144531 2.691406 -10.050781 2.703125 -8.4375 C 2.722656 -6.820312 3.015625 -5.851562 3.578125 -5.53125 C 3.960938 -5.289062 4.5625 -5.660156 5.375 -6.640625 C 7.132812 -8.753906 8.945312 -11.425781 10.8125 -14.65625 C 11.09375 -15.15625 11.492188 -15.304688 12.015625 -15.109375 C 12.546875 -14.910156 12.773438 -14.550781 12.703125 -14.03125 C 12.109375 -9.632812 11.492188 -5.46875 10.859375 -1.53125 C 14.484375 -4.90625 19.019531 -8.367188 24.46875 -11.921875 C 24.675781 -12.054688 24.921875 -12.097656 25.203125 -12.046875 Z M 1.53125 31.484375 C 3.78125 24.453125 5.867188 15.46875 7.796875 4.53125 C 4.003906 8.75 0.734375 13.5 -2.015625 18.78125 C -3.523438 21.65625 -4.726562 24.59375 -5.625 27.59375 C -6.519531 30.601562 -7.070312 33.234375 -7.28125 35.484375 C -7.488281 37.734375 -7.503906 39.664062 -7.328125 41.28125 C -7.160156 42.90625 -6.828125 44.015625 -6.328125 44.609375 C -6.085938 44.890625 -5.84375 45 -5.59375 44.9375 C -5.414062 44.894531 -5.222656 44.800781 -5.015625 44.65625 C -4.804688 44.519531 -4.453125 44.160156 -3.953125 43.578125 C -3.460938 43.003906 -2.972656 42.269531 -2.484375 41.375 C -1.992188 40.476562 -1.378906 39.164062 -0.640625 37.4375 C 0.0976562 35.71875 0.820312 33.734375 1.53125 31.484375 Z M 1.53125 31.484375 "/></g></g></g><g fill="#000000" fill-opacity="1"><g transform="translate(308.378099, 221.73156)"><g><path d="M 3.953125 -36.921875 L 18.71875 -36.921875 C 21.175781 -36.921875 23.1875 -36.441406 24.75 -35.484375 C 26.320312 -34.535156 27.441406 -33.347656 28.109375 -31.921875 C 28.773438 -30.503906 29.109375 -29.039062 29.109375 -27.53125 C 29.109375 -25.945312 28.773438 -24.570312 28.109375 -23.40625 C 27.441406 -22.25 26.632812 -21.351562 25.6875 -20.71875 C 24.738281 -20.09375 23.84375 -19.691406 23 -19.515625 L 23 -19.203125 C 23.90625 -19.128906 24.960938 -18.800781 26.171875 -18.21875 C 27.390625 -17.632812 28.460938 -16.703125 29.390625 -15.421875 C 30.328125 -14.140625 30.796875 -12.515625 30.796875 -10.546875 C 30.796875 -8.785156 30.398438 -7.101562 29.609375 -5.5 C 28.816406 -3.90625 27.578125 -2.585938 25.890625 -1.546875 C 24.203125 -0.515625 22.09375 0 19.5625 0 L 3.953125 0 Z M 17.40625 -20.71875 C 19.40625 -20.71875 21.125 -21.238281 22.5625 -22.28125 C 24.007812 -23.320312 24.734375 -24.929688 24.734375 -27.109375 C 24.734375 -29.179688 24.035156 -30.691406 22.640625 -31.640625 C 21.253906 -32.585938 19.507812 -33.0625 17.40625 -33.0625 L 8.390625 -33.0625 L 8.390625 -20.71875 Z M 18.40625 -3.84375 C 20.6875 -3.84375 22.582031 -4.367188 24.09375 -5.421875 C 25.613281 -6.484375 26.375 -8.207031 26.375 -10.59375 C 26.375 -12.957031 25.613281 -14.640625 24.09375 -15.640625 C 22.582031 -16.640625 20.6875 -17.140625 18.40625 -17.140625 L 8.390625 -17.140625 L 8.390625 -3.84375 Z M 18.40625 -3.84375 "/></g></g></g><g fill="#000000" fill-opacity="1"><g transform="translate(346.559528, 221.73156)"><g><path d="M 15.078125 -14.71875 L 8.484375 -14.71875 L 8.484375 0 L 3.953125 0 L 3.953125 -36.921875 L 16.5 -36.921875 C 19.488281 -36.921875 21.941406 -36.375 23.859375 -35.28125 C 25.773438 -34.1875 27.15625 -32.796875 28 -31.109375 C 28.84375 -29.421875 29.265625 -27.644531 29.265625 -25.78125 C 29.265625 -23.21875 28.5 -20.914062 26.96875 -18.875 C 25.445312 -16.84375 23.066406 -15.546875 19.828125 -14.984375 L 29.578125 0 L 24.578125 0 Z M 8.484375 -18.609375 L 15.921875 -18.609375 C 18.421875 -18.609375 20.53125 -19.15625 22.25 -20.25 C 23.976562 -21.34375 24.84375 -23.1875 24.84375 -25.78125 C 24.84375 -28.351562 23.976562 -30.164062 22.25 -31.21875 C 20.53125 -32.269531 18.421875 -32.796875 15.921875 -32.796875 L 8.484375 -32.796875 Z M 8.484375 -18.609375 "/></g></g></g><g fill="#000000" fill-opacity="1"><g transform="translate(383.738955, 221.73156)"><g><path d="M 4.109375 -36.921875 L 8.703125 -36.921875 L 8.703125 0 L 4.109375 0 Z M 4.109375 -36.921875 "/></g></g></g><g fill="#000000" fill-opacity="1"><g transform="translate(401.827677, 221.73156)"><g><path d="M 25.46875 -10.765625 L 10.4375 -10.765625 L 6.546875 0 L 1.90625 0 L 15.765625 -36.921875 L 20.09375 -36.921875 L 34.0625 0 L 29.421875 0 Z M 24.15625 -14.390625 L 17.984375 -31.109375 L 17.765625 -31.109375 L 11.765625 -14.390625 Z M 24.15625 -14.390625 "/></g></g></g><g fill="#000000" fill-opacity="1"><g transform="translate(442.962365, 221.73156)"><g><path d="M 3.953125 -36.921875 L 9.078125 -36.921875 L 28.84375 -7.28125 L 29.0625 -7.28125 L 29.0625 -36.921875 L 33.546875 -36.921875 L 33.546875 0 L 28.375 0 L 8.65625 -29.21875 L 8.4375 -29.21875 L 8.4375 0 L 3.953125 0 Z M 3.953125 -36.921875 "/></g></g></g><g clip-path="url(#2d5523d888)"><g clip-path="url(#8dbd048986)"><g clip-path="url(#a70d1a7659)"><path fill="#000000" d="M 266.894531 190.273438 C 266.570312 190.261719 266.078125 190.214844 265.464844 190.226562 C 264.859375 190.261719 264.097656 190.277344 263.253906 190.421875 C 262.402344 190.539062 261.457031 190.75 260.4375 191.035156 C 259.425781 191.332031 258.34375 191.714844 257.246094 192.203125 C 256.152344 192.6875 255.019531 193.261719 253.914062 193.925781 C 253.359375 194.253906 252.796875 194.59375 252.257812 194.964844 C 252.207031 195 252.15625 195.035156 252.105469 195.070312 C 251.855469 194.867188 251.605469 194.671875 251.351562 194.480469 C 250.847656 194.117188 250.324219 193.785156 249.824219 193.449219 C 249.324219 193.109375 248.816406 192.796875 248.324219 192.484375 C 247.839844 192.167969 247.351562 191.875 246.859375 191.628906 C 245.886719 191.113281 244.953125 190.652344 244.082031 190.246094 C 242.34375 189.433594 240.859375 188.929688 239.777344 188.582031 C 238.710938 188.234375 238.066406 188.089844 238.066406 188.089844 L 237.367188 189.179688 C 237.367188 189.179688 237.765625 189.707031 238.527344 190.523438 C 238.90625 190.941406 239.371094 191.4375 239.925781 191.976562 C 240.476562 192.507812 241.097656 193.105469 241.773438 193.757812 C 242.449219 194.394531 243.183594 195.0625 243.980469 195.742188 C 244.777344 196.421875 245.550781 197.1875 246.40625 197.914062 C 246.714844 198.171875 247.023438 198.441406 247.335938 198.707031 C 246.375 199.519531 245.4375 200.324219 244.527344 201.148438 C 243.566406 202 242.640625 202.859375 241.726562 203.726562 C 240.832031 204.589844 239.964844 205.46875 239.179688 206.339844 C 238.390625 207.203125 237.683594 208.078125 237.0625 208.910156 C 236.738281 209.308594 236.480469 209.753906 236.214844 210.144531 C 235.953125 210.546875 235.703125 210.898438 235.496094 211.292969 C 235.078125 212.054688 234.714844 212.734375 234.492188 213.269531 C 234.0625 214.359375 233.851562 215.003906 233.851562 215.003906 L 234.832031 215.660156 C 234.832031 215.660156 235.351562 215.222656 236.195312 214.410156 C 236.609375 213.996094 237.160156 213.617188 237.714844 213.117188 C 238.308594 212.644531 238.996094 212.101562 239.742188 211.53125 C 240.128906 211.25 240.527344 210.964844 240.925781 210.65625 C 241.34375 210.359375 241.777344 210.054688 242.21875 209.738281 C 242.648438 209.417969 243.132812 209.109375 243.601562 208.777344 C 244.066406 208.441406 244.550781 208.105469 245.054688 207.761719 C 246.035156 207.066406 247.085938 206.339844 248.121094 205.5625 C 249.164062 204.800781 250.199219 203.984375 251.21875 203.199219 C 251.429688 203.03125 251.640625 202.867188 251.851562 202.699219 C 252.71875 203.480469 253.597656 204.238281 254.472656 204.976562 C 255.410156 205.765625 256.304688 206.515625 257.199219 207.238281 C 258.0625 207.96875 258.949219 208.648438 259.734375 209.316406 C 260.128906 209.652344 260.527344 209.96875 260.910156 210.273438 C 261.28125 210.589844 261.640625 210.894531 261.984375 211.183594 C 262.328125 211.480469 262.664062 211.757812 262.988281 212.019531 C 263.289062 212.296875 263.582031 212.554688 263.859375 212.796875 C 264.410156 213.289062 264.9375 213.699219 265.292969 214.082031 C 266.066406 214.816406 266.558594 215.238281 266.558594 215.238281 L 267.675781 214.585938 C 267.675781 214.585938 267.492188 213.960938 267.082031 212.875 C 266.882812 212.328125 266.59375 211.695312 266.21875 210.988281 C 266.039062 210.632812 265.839844 210.253906 265.621094 209.859375 C 265.390625 209.480469 265.144531 209.082031 264.878906 208.675781 C 264.359375 207.835938 263.742188 206.988281 263.066406 206.109375 C 262.410156 205.207031 261.640625 204.355469 260.863281 203.4375 C 260.066406 202.5625 259.226562 201.644531 258.367188 200.78125 C 257.777344 200.1875 257.164062 199.597656 256.558594 199.007812 C 256.726562 198.875 256.902344 198.738281 257.070312 198.605469 C 257.53125 198.25 257.984375 197.902344 258.429688 197.5625 C 258.875 197.230469 259.3125 196.902344 259.738281 196.582031 C 260.167969 196.273438 260.589844 195.980469 260.992188 195.675781 C 261.402344 195.394531 261.800781 195.125 262.183594 194.847656 C 262.957031 194.339844 263.671875 193.851562 264.332031 193.457031 C 264.976562 193.023438 265.574219 192.710938 266.054688 192.402344 C 266.554688 192.113281 266.945312 191.882812 267.210938 191.730469 C 267.480469 191.570312 267.625 191.472656 267.625 191.472656 L 267.394531 190.316406 C 267.394531 190.316406 267.21875 190.292969 266.894531 190.273438 Z M 266.894531 190.273438 " fill-opacity="1" fill-rule="nonzero"/></g></g></g></svg>